# xmcd CD database file
#
# Track frame offsets:
#	183
#	13470
#	25973
#	41055
#	51795
#	64670
#	75913
#	95220
#	113108
#	123700
#	140385
#	158188
#	170360
#
# Disc length: 2438 seconds
#
# Revision: 2
# Processed by: cddbd v1.5.1PL0 Copyright (c) Steve Scherf et al.
# Submitted via: jetAudio 5
#
DISCID=b009840d
DTITLE=Tom Jones - Tom Jones - 13 Smash Hits
DYEAR=1900
DGENRE=
TTITLE0=Don't Fight it
TTITLE1=You Keep Me Hangin' On
TTITLE2=Hold On, I'm Coming
TTITLE3=I Was Made To Love Her
TTITLE4=Keep On Running
TTITLE5=Get Ready
TTITLE6=(It Looks Like) I'll Never Fall In Love  Again
TTITLE7=I Know
TTITLE8=I Wake Up Crying
TTITLE9=Funny How Time Slips Away
TTITLE10=Danny Boy
TTITLE11=It's Man's Man's Man's World
TTITLE12=Yesterday
EXTD=
EXTT0=
EXTT1=
EXTT2=
EXTT3=
EXTT4=
EXTT5=
EXTT6=
EXTT7=
EXTT8=
EXTT9=
EXTT10=
EXTT11=
EXTT12=
PLAYORDER=
